<?xml version="1.0" encoding="UTF-8"?>
<svg xmlns="http://www.w3.org/2000/svg" xmlns:xlink="http://www.w3.org/1999/xlink" width="576" height="360" viewBox="0 0 576 360">
<defs>
<g>
<g id="glyph-0-0">
<path d="M 0.359375 0 L 0.359375 -7.921875 L 6.640625 -7.921875 L 6.640625 0 Z M 5.65625 -1 L 5.65625 -6.9375 L 1.34375 -6.9375 L 1.34375 -1 Z M 5.65625 -1 "/>
</g>
<g id="glyph-0-1">
<path d="M 4.1875 -8.140625 C 5.1875 -8.140625 5.960938 -7.875 6.515625 -7.34375 C 7.066406 -6.8125 7.375 -6.210938 7.4375 -5.546875 L 6.390625 -5.546875 C 6.273438 -6.054688 6.039062 -6.457031 5.6875 -6.75 C 5.332031 -7.050781 4.832031 -7.203125 4.1875 -7.203125 C 3.40625 -7.203125 2.773438 -6.925781 2.296875 -6.375 C 1.816406 -5.832031 1.578125 -4.992188 1.578125 -3.859375 C 1.578125 -2.929688 1.789062 -2.175781 2.21875 -1.59375 C 2.65625 -1.019531 3.304688 -0.734375 4.171875 -0.734375 C 4.960938 -0.734375 5.5625 -1.039062 5.96875 -1.65625 C 6.195312 -1.96875 6.363281 -2.382812 6.46875 -2.90625 L 7.515625 -2.90625 C 7.421875 -2.070312 7.113281 -1.375 6.59375 -0.8125 C 5.957031 -0.132812 5.109375 0.203125 4.046875 0.203125 C 3.117188 0.203125 2.34375 -0.0703125 1.71875 -0.625 C 0.894531 -1.363281 0.484375 -2.503906 0.484375 -4.046875 C 0.484375 -5.210938 0.789062 -6.171875 1.40625 -6.921875 C 2.082031 -7.734375 3.007812 -8.140625 4.1875 -8.140625 Z M 3.96875 -8.140625 Z M 3.96875 -8.140625 "/>
</g>
<g id="glyph-0-2">
<path d="M 3 -0.625 C 3.644531 -0.625 4.085938 -0.867188 4.328125 -1.359375 C 4.566406 -1.847656 4.6875 -2.390625 4.6875 -2.984375 C 4.6875 -3.523438 4.597656 -3.960938 4.421875 -4.296875 C 4.148438 -4.828125 3.679688 -5.09375 3.015625 -5.09375 C 2.421875 -5.09375 1.988281 -4.863281 1.71875 -4.40625 C 1.445312 -3.957031 1.3125 -3.414062 1.3125 -2.78125 C 1.3125 -2.164062 1.445312 -1.648438 1.71875 -1.234375 C 1.988281 -0.828125 2.414062 -0.625 3 -0.625 Z M 3.046875 -5.9375 C 3.785156 -5.9375 4.410156 -5.6875 4.921875 -5.1875 C 5.441406 -4.695312 5.703125 -3.972656 5.703125 -3.015625 C 5.703125 -2.078125 5.472656 -1.304688 5.015625 -0.703125 C 4.566406 -0.0976562 3.863281 0.203125 2.90625 0.203125 C 2.113281 0.203125 1.484375 -0.0625 1.015625 -0.59375 C 0.546875 -1.132812 0.3125 -1.859375 0.3125 -2.765625 C 0.3125 -3.734375 0.554688 -4.503906 1.046875 -5.078125 C 1.546875 -5.648438 2.210938 -5.9375 3.046875 -5.9375 Z M 3.015625 -5.921875 Z M 3.015625 -5.921875 "/>
</g>
<g id="glyph-0-3">
<path d="M 1.6875 -5.78125 L 1.6875 -1.9375 C 1.6875 -1.644531 1.734375 -1.40625 1.828125 -1.21875 C 1.992188 -0.875 2.3125 -0.703125 2.78125 -0.703125 C 3.457031 -0.703125 3.921875 -1.003906 4.171875 -1.609375 C 4.304688 -1.929688 4.375 -2.375 4.375 -2.9375 L 4.375 -5.78125 L 5.34375 -5.78125 L 5.34375 0 L 4.421875 0 L 4.4375 -0.859375 C 4.3125 -0.628906 4.15625 -0.441406 3.96875 -0.296875 C 3.59375 0.00390625 3.140625 0.15625 2.609375 0.15625 C 1.785156 0.15625 1.226562 -0.117188 0.9375 -0.671875 C 0.769531 -0.960938 0.6875 -1.351562 0.6875 -1.84375 L 0.6875 -5.78125 Z M 3.015625 -5.921875 Z M 3.015625 -5.921875 "/>
</g>
<g id="glyph-0-4">
<path d="M 0.71875 -5.78125 L 1.640625 -5.78125 L 1.640625 -4.953125 C 1.910156 -5.296875 2.195312 -5.539062 2.5 -5.6875 C 2.8125 -5.832031 3.148438 -5.90625 3.515625 -5.90625 C 4.335938 -5.90625 4.894531 -5.617188 5.1875 -5.046875 C 5.34375 -4.734375 5.421875 -4.285156 5.421875 -3.703125 L 5.421875 0 L 4.4375 0 L 4.4375 -3.640625 C 4.4375 -3.992188 4.382812 -4.28125 4.28125 -4.5 C 4.101562 -4.851562 3.789062 -5.03125 3.34375 -5.03125 C 3.113281 -5.03125 2.921875 -5.007812 2.765625 -4.96875 C 2.503906 -4.882812 2.273438 -4.722656 2.078125 -4.484375 C 1.910156 -4.296875 1.800781 -4.097656 1.75 -3.890625 C 1.707031 -3.691406 1.6875 -3.40625 1.6875 -3.03125 L 1.6875 0 L 0.71875 0 Z M 3 -5.921875 Z M 3 -5.921875 "/>
</g>
<g id="glyph-0-5">
<path d="M 0.90625 -7.390625 L 1.890625 -7.390625 L 1.890625 -5.78125 L 2.8125 -5.78125 L 2.8125 -4.984375 L 1.890625 -4.984375 L 1.890625 -1.21875 C 1.890625 -1.007812 1.957031 -0.875 2.09375 -0.8125 C 2.164062 -0.769531 2.289062 -0.75 2.46875 -0.75 C 2.519531 -0.75 2.570312 -0.75 2.625 -0.75 C 2.675781 -0.75 2.738281 -0.753906 2.8125 -0.765625 L 2.8125 0 C 2.695312 0.03125 2.578125 0.0507812 2.453125 0.0625 C 2.335938 0.0820312 2.210938 0.09375 2.078125 0.09375 C 1.617188 0.09375 1.304688 -0.0195312 1.140625 -0.25 C 0.984375 -0.488281 0.90625 -0.789062 0.90625 -1.15625 L 0.90625 -4.984375 L 0.125 -4.984375 L 0.125 -5.78125 L 0.90625 -5.78125 Z M 0.90625 -7.390625 "/>
</g>
<g id="glyph-0-6">
<path d="M 0.734375 -5.78125 L 1.65625 -5.78125 L 1.65625 -4.78125 C 1.738281 -4.976562 1.925781 -5.210938 2.21875 -5.484375 C 2.507812 -5.765625 2.847656 -5.90625 3.234375 -5.90625 C 3.253906 -5.90625 3.285156 -5.898438 3.328125 -5.890625 C 3.367188 -5.890625 3.441406 -5.882812 3.546875 -5.875 L 3.546875 -4.859375 C 3.492188 -4.867188 3.441406 -4.875 3.390625 -4.875 C 3.335938 -4.875 3.285156 -4.875 3.234375 -4.875 C 2.742188 -4.875 2.363281 -4.71875 2.09375 -4.40625 C 1.832031 -4.09375 1.703125 -3.734375 1.703125 -3.328125 L 1.703125 0 L 0.734375 0 Z M 0.734375 -5.78125 "/>
</g>
<g id="glyph-0-7">
<path d="M 4.328125 -5.78125 L 5.390625 -5.78125 C 5.253906 -5.40625 4.953125 -4.554688 4.484375 -3.234375 C 4.128906 -2.242188 3.832031 -1.4375 3.59375 -0.8125 C 3.03125 0.652344 2.632812 1.550781 2.40625 1.875 C 2.175781 2.207031 1.78125 2.375 1.21875 2.375 C 1.082031 2.375 0.976562 2.363281 0.90625 2.34375 C 0.832031 2.332031 0.742188 2.316406 0.640625 2.296875 L 0.640625 1.40625 C 0.804688 1.457031 0.925781 1.488281 1 1.5 C 1.070312 1.507812 1.140625 1.515625 1.203125 1.515625 C 1.378906 1.515625 1.507812 1.484375 1.59375 1.421875 C 1.675781 1.359375 1.75 1.285156 1.8125 1.203125 C 1.832031 1.171875 1.894531 1.019531 2 0.75 C 2.113281 0.488281 2.195312 0.296875 2.25 0.171875 L 0.109375 -5.78125 L 1.21875 -5.78125 L 2.765625 -1.078125 Z M 2.75 -5.921875 Z M 2.75 -5.921875 "/>
</g>
<g id="glyph-0-8">
</g>
<g id="glyph-0-9">
<path d="M 4.90625 -3.25 L 3.703125 -6.75 L 2.421875 -3.25 Z M 3.140625 -7.921875 L 4.359375 -7.921875 L 7.234375 0 L 6.0625 0 L 5.25 -2.375 L 2.125 -2.375 L 1.265625 0 L 0.15625 0 Z M 3.140625 -7.921875 "/>
</g>
<g id="glyph-1-0">
<path d="M 0.40625 1.421875 L 0.40625 -5.640625 L 4.40625 -5.640625 L 4.40625 1.421875 Z M 0.84375 0.96875 L 3.953125 0.96875 L 3.953125 -5.1875 L 0.84375 -5.1875 Z M 0.84375 0.96875 "/>
</g>
<g id="glyph-1-1">
<path d="M 2.546875 -5.3125 C 2.140625 -5.3125 1.832031 -5.109375 1.625 -4.703125 C 1.425781 -4.304688 1.328125 -3.707031 1.328125 -2.90625 C 1.328125 -2.113281 1.425781 -1.515625 1.625 -1.109375 C 1.832031 -0.710938 2.140625 -0.515625 2.546875 -0.515625 C 2.953125 -0.515625 3.253906 -0.710938 3.453125 -1.109375 C 3.660156 -1.515625 3.765625 -2.113281 3.765625 -2.90625 C 3.765625 -3.707031 3.660156 -4.304688 3.453125 -4.703125 C 3.253906 -5.109375 2.953125 -5.3125 2.546875 -5.3125 Z M 2.546875 -5.9375 C 3.203125 -5.9375 3.703125 -5.675781 4.046875 -5.15625 C 4.390625 -4.644531 4.5625 -3.894531 4.5625 -2.90625 C 4.5625 -1.925781 4.390625 -1.175781 4.046875 -0.65625 C 3.703125 -0.144531 3.203125 0.109375 2.546875 0.109375 C 1.890625 0.109375 1.390625 -0.144531 1.046875 -0.65625 C 0.703125 -1.175781 0.53125 -1.925781 0.53125 -2.90625 C 0.53125 -3.894531 0.703125 -4.644531 1.046875 -5.15625 C 1.390625 -5.675781 1.890625 -5.9375 2.546875 -5.9375 Z M 2.546875 -5.9375 "/>
</g>
<g id="glyph-1-2">
<path d="M 0.859375 -5.828125 L 3.96875 -5.828125 L 3.96875 -5.171875 L 1.59375 -5.171875 L 1.59375 -3.734375 C 1.707031 -3.773438 1.820312 -3.804688 1.9375 -3.828125 C 2.050781 -3.847656 2.164062 -3.859375 2.28125 -3.859375 C 2.925781 -3.859375 3.4375 -3.675781 3.8125 -3.3125 C 4.195312 -2.957031 4.390625 -2.476562 4.390625 -1.875 C 4.390625 -1.25 4.191406 -0.757812 3.796875 -0.40625 C 3.410156 -0.0625 2.863281 0.109375 2.15625 0.109375 C 1.90625 0.109375 1.65625 0.0859375 1.40625 0.046875 C 1.15625 0.00390625 0.894531 -0.0546875 0.625 -0.140625 L 0.625 -0.9375 C 0.851562 -0.800781 1.09375 -0.703125 1.34375 -0.640625 C 1.59375 -0.578125 1.859375 -0.546875 2.140625 -0.546875 C 2.585938 -0.546875 2.941406 -0.664062 3.203125 -0.90625 C 3.472656 -1.144531 3.609375 -1.46875 3.609375 -1.875 C 3.609375 -2.28125 3.472656 -2.597656 3.203125 -2.828125 C 2.941406 -3.066406 2.585938 -3.1875 2.140625 -3.1875 C 1.929688 -3.1875 1.71875 -3.160156 1.5 -3.109375 C 1.289062 -3.066406 1.078125 -3 0.859375 -2.90625 Z M 0.859375 -5.828125 "/>
</g>
<g id="glyph-1-3">
<path d="M 1 -0.671875 L 2.28125 -0.671875 L 2.28125 -5.109375 L 0.875 -4.828125 L 0.875 -5.546875 L 2.28125 -5.828125 L 3.0625 -5.828125 L 3.0625 -0.671875 L 4.359375 -0.671875 L 4.359375 0 L 1 0 Z M 1 -0.671875 "/>
</g>
<g id="glyph-1-4">
<path d="M 1.53125 -0.671875 L 4.296875 -0.671875 L 4.296875 0 L 0.59375 0 L 0.59375 -0.671875 C 0.882812 -0.972656 1.289062 -1.382812 1.8125 -1.90625 C 2.332031 -2.4375 2.65625 -2.773438 2.78125 -2.921875 C 3.039062 -3.203125 3.21875 -3.441406 3.3125 -3.640625 C 3.414062 -3.835938 3.46875 -4.03125 3.46875 -4.21875 C 3.46875 -4.53125 3.359375 -4.785156 3.140625 -4.984375 C 2.921875 -5.179688 2.640625 -5.28125 2.296875 -5.28125 C 2.046875 -5.28125 1.78125 -5.234375 1.5 -5.140625 C 1.226562 -5.054688 0.9375 -4.925781 0.625 -4.75 L 0.625 -5.546875 C 0.945312 -5.679688 1.242188 -5.78125 1.515625 -5.84375 C 1.796875 -5.90625 2.050781 -5.9375 2.28125 -5.9375 C 2.882812 -5.9375 3.363281 -5.785156 3.71875 -5.484375 C 4.082031 -5.179688 4.265625 -4.78125 4.265625 -4.28125 C 4.265625 -4.039062 4.21875 -3.8125 4.125 -3.59375 C 4.03125 -3.375 3.867188 -3.117188 3.640625 -2.828125 C 3.566406 -2.753906 3.351562 -2.535156 3 -2.171875 C 2.65625 -1.816406 2.164062 -1.316406 1.53125 -0.671875 Z M 1.53125 -0.671875 "/>
</g>
<g id="glyph-1-5">
<path d="M 0.859375 -1 L 1.6875 -1 L 1.6875 0 L 0.859375 0 Z M 0.859375 -1 "/>
</g>
<g id="glyph-1-6">
<path d="M 0.65625 -5.828125 L 4.40625 -5.828125 L 4.40625 -5.5 L 2.296875 0 L 1.46875 0 L 3.453125 -5.171875 L 0.65625 -5.171875 Z M 0.65625 -5.828125 "/>
</g>
<g id="glyph-2-0">
<path d="M 0.453125 1.59375 L 0.453125 -6.34375 L 4.953125 -6.34375 L 4.953125 1.59375 Z M 0.953125 1.09375 L 4.453125 1.09375 L 4.453125 -5.84375 L 0.953125 -5.84375 Z M 0.953125 1.09375 "/>
</g>
<g id="glyph-2-1">
<path d="M 3.546875 -5.953125 C 2.898438 -5.953125 2.382812 -5.710938 2 -5.234375 C 1.625 -4.753906 1.4375 -4.101562 1.4375 -3.28125 C 1.4375 -2.445312 1.625 -1.789062 2 -1.3125 C 2.382812 -0.832031 2.898438 -0.59375 3.546875 -0.59375 C 4.191406 -0.59375 4.703125 -0.832031 5.078125 -1.3125 C 5.453125 -1.789062 5.640625 -2.445312 5.640625 -3.28125 C 5.640625 -4.101562 5.453125 -4.753906 5.078125 -5.234375 C 4.703125 -5.710938 4.191406 -5.953125 3.546875 -5.953125 Z M 3.546875 -6.6875 C 4.460938 -6.6875 5.195312 -6.375 5.75 -5.75 C 6.300781 -5.132812 6.578125 -4.3125 6.578125 -3.28125 C 6.578125 -2.238281 6.300781 -1.410156 5.75 -0.796875 C 5.195312 -0.179688 4.460938 0.125 3.546875 0.125 C 2.617188 0.125 1.878906 -0.179688 1.328125 -0.796875 C 0.773438 -1.410156 0.5 -2.238281 0.5 -3.28125 C 0.5 -4.3125 0.773438 -5.132812 1.328125 -5.75 C 1.878906 -6.375 2.617188 -6.6875 3.546875 -6.6875 Z M 3.546875 -6.6875 "/>
</g>
<g id="glyph-2-2">
<path d="M 0.84375 -4.921875 L 1.65625 -4.921875 L 1.65625 0 L 0.84375 0 Z M 0.84375 -6.84375 L 1.65625 -6.84375 L 1.65625 -5.8125 L 0.84375 -5.8125 Z M 0.84375 -6.84375 "/>
</g>
<g id="glyph-2-3">
<path d="M 0.84375 -6.84375 L 1.65625 -6.84375 L 1.65625 0 L 0.84375 0 Z M 0.84375 -6.84375 "/>
</g>
<g id="glyph-3-0">
<path d="M 1.59375 -0.453125 L -6.34375 -0.453125 L -6.34375 -4.953125 L 1.59375 -4.953125 Z M 1.09375 -0.953125 L 1.09375 -4.453125 L -5.84375 -4.453125 L -5.84375 -0.953125 Z M 1.09375 -0.953125 "/>
</g>
<g id="glyph-3-1">
<path d="M -0.9375 -5.359375 L -2.703125 -5.359375 L -2.703125 -3.90625 L -3.421875 -3.90625 L -3.421875 -6.234375 L -0.609375 -6.234375 C -0.367188 -5.890625 -0.1875 -5.507812 -0.0625 -5.09375 C 0.0585938 -4.6875 0.125 -4.25 0.125 -3.78125 C 0.125 -2.75 -0.171875 -1.941406 -0.765625 -1.359375 C -1.367188 -0.785156 -2.207031 -0.5 -3.28125 -0.5 C -4.34375 -0.5 -5.175781 -0.785156 -5.78125 -1.359375 C -6.382812 -1.941406 -6.6875 -2.75 -6.6875 -3.78125 C -6.6875 -4.207031 -6.628906 -4.613281 -6.515625 -5 C -6.410156 -5.382812 -6.257812 -5.738281 -6.0625 -6.0625 L -5.109375 -6.0625 C -5.390625 -5.738281 -5.597656 -5.390625 -5.734375 -5.015625 C -5.878906 -4.648438 -5.953125 -4.265625 -5.953125 -3.859375 C -5.953125 -3.054688 -5.726562 -2.453125 -5.28125 -2.046875 C -4.832031 -1.640625 -4.164062 -1.4375 -3.28125 -1.4375 C -2.394531 -1.4375 -1.726562 -1.640625 -1.28125 -2.046875 C -0.832031 -2.453125 -0.609375 -3.054688 -0.609375 -3.859375 C -0.609375 -4.171875 -0.632812 -4.445312 -0.6875 -4.6875 C -0.738281 -4.9375 -0.820312 -5.160156 -0.9375 -5.359375 Z M -0.9375 -5.359375 "/>
</g>
<g id="glyph-3-2">
<path d="M -1.9375 -0.765625 L -4.921875 -0.765625 L -4.921875 -1.578125 L -1.96875 -1.578125 C -1.507812 -1.578125 -1.160156 -1.664062 -0.921875 -1.84375 C -0.691406 -2.03125 -0.578125 -2.300781 -0.578125 -2.65625 C -0.578125 -3.09375 -0.710938 -3.4375 -0.984375 -3.6875 C -1.265625 -3.945312 -1.644531 -4.078125 -2.125 -4.078125 L -4.921875 -4.078125 L -4.921875 -4.890625 L 0 -4.890625 L 0 -4.078125 L -0.75 -4.078125 C -0.457031 -3.878906 -0.238281 -3.648438 -0.09375 -3.390625 C 0.0507812 -3.128906 0.125 -2.828125 0.125 -2.484375 C 0.125 -1.921875 -0.046875 -1.492188 -0.390625 -1.203125 C -0.742188 -0.910156 -1.257812 -0.765625 -1.9375 -0.765625 Z M -1.9375 -0.765625 "/>
</g>
<g id="glyph-3-3">
<path d="M -2.96875 -4.9375 L 0 -4.9375 L 0 -4.125 L -2.9375 -4.125 C -3.40625 -4.125 -3.753906 -4.035156 -3.984375 -3.859375 C -4.222656 -3.679688 -4.34375 -3.410156 -4.34375 -3.046875 C -4.34375 -2.609375 -4.203125 -2.257812 -3.921875 -2 C -3.640625 -1.75 -3.257812 -1.625 -2.78125 -1.625 L 0 -1.625 L 0 -0.8125 L -4.921875 -0.8125 L -4.921875 -1.625 L -4.15625 -1.625 C -4.445312 -1.820312 -4.664062 -2.050781 -4.8125 -2.3125 C -4.96875 -2.570312 -5.046875 -2.875 -5.046875 -3.21875 C -5.046875 -3.78125 -4.867188 -4.207031 -4.515625 -4.5 C -4.160156 -4.789062 -3.644531 -4.9375 -2.96875 -4.9375 Z M -2.96875 -4.9375 "/>
</g>
<g id="glyph-3-4">
<path d="M -4.78125 -3.984375 L -4.015625 -3.984375 C -4.128906 -3.753906 -4.210938 -3.515625 -4.265625 -3.265625 C -4.328125 -3.023438 -4.359375 -2.773438 -4.359375 -2.515625 C -4.359375 -2.109375 -4.296875 -1.804688 -4.171875 -1.609375 C -4.054688 -1.410156 -3.875 -1.3125 -3.625 -1.3125 C -3.4375 -1.3125 -3.289062 -1.378906 -3.1875 -1.515625 C -3.082031 -1.660156 -2.976562 -1.953125 -2.875 -2.390625 L -2.8125 -2.65625 C -2.6875 -3.238281 -2.507812 -3.648438 -2.28125 -3.890625 C -2.0625 -4.128906 -1.753906 -4.25 -1.359375 -4.25 C -0.898438 -4.25 -0.535156 -4.066406 -0.265625 -3.703125 C -0.00390625 -3.347656 0.125 -2.851562 0.125 -2.21875 C 0.125 -1.945312 0.0976562 -1.671875 0.046875 -1.390625 C -0.00390625 -1.109375 -0.0820312 -0.804688 -0.1875 -0.484375 L -1.015625 -0.484375 C -0.859375 -0.785156 -0.738281 -1.082031 -0.65625 -1.375 C -0.582031 -1.664062 -0.546875 -1.953125 -0.546875 -2.234375 C -0.546875 -2.609375 -0.609375 -2.898438 -0.734375 -3.109375 C -0.867188 -3.316406 -1.054688 -3.421875 -1.296875 -3.421875 C -1.515625 -3.421875 -1.679688 -3.34375 -1.796875 -3.1875 C -1.921875 -3.039062 -2.035156 -2.71875 -2.140625 -2.21875 L -2.203125 -1.9375 C -2.304688 -1.4375 -2.46875 -1.070312 -2.6875 -0.84375 C -2.90625 -0.625 -3.207031 -0.515625 -3.59375 -0.515625 C -4.050781 -0.515625 -4.40625 -0.675781 -4.65625 -1 C -4.914062 -1.332031 -5.046875 -1.800781 -5.046875 -2.40625 C -5.046875 -2.707031 -5.019531 -2.988281 -4.96875 -3.25 C -4.925781 -3.519531 -4.863281 -3.765625 -4.78125 -3.984375 Z M -4.78125 -3.984375 "/>
</g>
</g>
<clipPath id="clip-0">
<path clip-rule="nonzero" d="M 52.871094 267 L 546.109375 267 L 546.109375 268 L 52.871094 268 Z M 52.871094 267 "/>
</clipPath>
<clipPath id="clip-1">
<path clip-rule="nonzero" d="M 52.871094 209 L 546.109375 209 L 546.109375 211 L 52.871094 211 Z M 52.871094 209 "/>
</clipPath>
<clipPath id="clip-2">
<path clip-rule="nonzero" d="M 52.871094 152 L 546.109375 152 L 546.109375 153 L 52.871094 153 Z M 52.871094 152 "/>
</clipPath>
<clipPath id="clip-3">
<path clip-rule="nonzero" d="M 52.871094 94 L 546.109375 94 L 546.109375 95 L 52.871094 95 Z M 52.871094 94 "/>
</clipPath>
<clipPath id="clip-4">
<path clip-rule="nonzero" d="M 52.871094 36 L 546.109375 36 L 546.109375 37 L 52.871094 37 Z M 52.871094 36 "/>
</clipPath>
<clipPath id="clip-5">
<path clip-rule="nonzero" d="M 131 29.886719 L 132 29.886719 L 132 309.125 L 131 309.125 Z M 131 29.886719 "/>
</clipPath>
<clipPath id="clip-6">
<path clip-rule="nonzero" d="M 243 29.886719 L 244 29.886719 L 244 309.125 L 243 309.125 Z M 243 29.886719 "/>
</clipPath>
<clipPath id="clip-7">
<path clip-rule="nonzero" d="M 355 29.886719 L 356 29.886719 L 356 309.125 L 355 309.125 Z M 355 29.886719 "/>
</clipPath>
<clipPath id="clip-8">
<path clip-rule="nonzero" d="M 467 29.886719 L 468 29.886719 L 468 309.125 L 467 309.125 Z M 467 29.886719 "/>
</clipPath>
<clipPath id="clip-9">
<path clip-rule="nonzero" d="M 52.871094 296 L 546.109375 296 L 546.109375 297 L 52.871094 297 Z M 52.871094 296 "/>
</clipPath>
<clipPath id="clip-10">
<path clip-rule="nonzero" d="M 52.871094 238 L 546.109375 238 L 546.109375 239 L 52.871094 239 Z M 52.871094 238 "/>
</clipPath>
<clipPath id="clip-11">
<path clip-rule="nonzero" d="M 52.871094 180 L 546.109375 180 L 546.109375 182 L 52.871094 182 Z M 52.871094 180 "/>
</clipPath>
<clipPath id="clip-12">
<path clip-rule="nonzero" d="M 52.871094 123 L 546.109375 123 L 546.109375 124 L 52.871094 124 Z M 52.871094 123 "/>
</clipPath>
<clipPath id="clip-13">
<path clip-rule="nonzero" d="M 52.871094 65 L 546.109375 65 L 546.109375 66 L 52.871094 66 Z M 52.871094 65 "/>
</clipPath>
<clipPath id="clip-14">
<path clip-rule="nonzero" d="M 75 29.886719 L 76 29.886719 L 76 309.125 L 75 309.125 Z M 75 29.886719 "/>
</clipPath>
<clipPath id="clip-15">
<path clip-rule="nonzero" d="M 187 29.886719 L 188 29.886719 L 188 309.125 L 187 309.125 Z M 187 29.886719 "/>
</clipPath>
<clipPath id="clip-16">
<path clip-rule="nonzero" d="M 299 29.886719 L 300 29.886719 L 300 309.125 L 299 309.125 Z M 299 29.886719 "/>
</clipPath>
<clipPath id="clip-17">
<path clip-rule="nonzero" d="M 411 29.886719 L 412 29.886719 L 412 309.125 L 411 309.125 Z M 411 29.886719 "/>
</clipPath>
<clipPath id="clip-18">
<path clip-rule="nonzero" d="M 523 29.886719 L 524 29.886719 L 524 309.125 L 523 309.125 Z M 523 29.886719 "/>
</clipPath>
<clipPath id="clip-19">
<path clip-rule="nonzero" d="M 74 29.886719 L 76 29.886719 L 76 309.125 L 74 309.125 Z M 74 29.886719 "/>
</clipPath>
<clipPath id="clip-20">
<path clip-rule="nonzero" d="M 52.871094 295 L 546.109375 295 L 546.109375 297 L 52.871094 297 Z M 52.871094 295 "/>
</clipPath>
<clipPath id="clip-21">
<path clip-rule="nonzero" d="M 52.871094 176 L 101 176 L 101 187 L 52.871094 187 Z M 52.871094 176 "/>
</clipPath>
</defs>
<rect x="-57.6" y="-36" width="691.2" height="432" fill="rgb(100%, 100%, 100%)" fill-opacity="1"/>
<g clip-path="url(#clip-0)">
<path fill="none" stroke-width="0.320094" stroke-linecap="butt" stroke-linejoin="round" stroke="rgb(80%, 80%, 80%)" stroke-opacity="1" stroke-miterlimit="10" d="M 52.871094 267.585938 L 546.113281 267.585938 "/>
</g>
<g clip-path="url(#clip-1)">
<path fill="none" stroke-width="0.320094" stroke-linecap="butt" stroke-linejoin="round" stroke="rgb(80%, 80%, 80%)" stroke-opacity="1" stroke-miterlimit="10" d="M 52.871094 209.894531 L 546.113281 209.894531 "/>
</g>
<g clip-path="url(#clip-2)">
<path fill="none" stroke-width="0.320094" stroke-linecap="butt" stroke-linejoin="round" stroke="rgb(80%, 80%, 80%)" stroke-opacity="1" stroke-miterlimit="10" d="M 52.871094 152.199219 L 546.113281 152.199219 "/>
</g>
<g clip-path="url(#clip-3)">
<path fill="none" stroke-width="0.320094" stroke-linecap="butt" stroke-linejoin="round" stroke="rgb(80%, 80%, 80%)" stroke-opacity="1" stroke-miterlimit="10" d="M 52.871094 94.503906 L 546.113281 94.503906 "/>
</g>
<g clip-path="url(#clip-4)">
<path fill="none" stroke-width="0.320094" stroke-linecap="butt" stroke-linejoin="round" stroke="rgb(80%, 80%, 80%)" stroke-opacity="1" stroke-miterlimit="10" d="M 52.871094 36.8125 L 546.113281 36.8125 "/>
</g>
<g clip-path="url(#clip-5)">
<path fill="none" stroke-width="0.320094" stroke-linecap="butt" stroke-linejoin="round" stroke="rgb(80%, 80%, 80%)" stroke-opacity="1" stroke-miterlimit="10" d="M 131.34375 309.128906 L 131.34375 29.886719 "/>
</g>
<g clip-path="url(#clip-6)">
<path fill="none" stroke-width="0.320094" stroke-linecap="butt" stroke-linejoin="round" stroke="rgb(80%, 80%, 80%)" stroke-opacity="1" stroke-miterlimit="10" d="M 243.441406 309.128906 L 243.441406 29.886719 "/>
</g>
<g clip-path="url(#clip-7)">
<path fill="none" stroke-width="0.320094" stroke-linecap="butt" stroke-linejoin="round" stroke="rgb(80%, 80%, 80%)" stroke-opacity="1" stroke-miterlimit="10" d="M 355.542969 309.128906 L 355.542969 29.886719 "/>
</g>
<g clip-path="url(#clip-8)">
<path fill="none" stroke-width="0.320094" stroke-linecap="butt" stroke-linejoin="round" stroke="rgb(80%, 80%, 80%)" stroke-opacity="1" stroke-miterlimit="10" d="M 467.640625 309.128906 L 467.640625 29.886719 "/>
</g>
<g clip-path="url(#clip-9)">
<path fill="none" stroke-width="0.426791" stroke-linecap="butt" stroke-linejoin="round" stroke="rgb(80%, 80%, 80%)" stroke-opacity="1" stroke-miterlimit="10" d="M 52.871094 296.433594 L 546.113281 296.433594 "/>
</g>
<g clip-path="url(#clip-10)">
<path fill="none" stroke-width="0.426791" stroke-linecap="butt" stroke-linejoin="round" stroke="rgb(80%, 80%, 80%)" stroke-opacity="1" stroke-miterlimit="10" d="M 52.871094 238.742188 L 546.113281 238.742188 "/>
</g>
<g clip-path="url(#clip-11)">
<path fill="none" stroke-width="0.426791" stroke-linecap="butt" stroke-linejoin="round" stroke="rgb(80%, 80%, 80%)" stroke-opacity="1" stroke-miterlimit="10" d="M 52.871094 181.046875 L 546.113281 181.046875 "/>
</g>
<g clip-path="url(#clip-12)">
<path fill="none" stroke-width="0.426791" stroke-linecap="butt" stroke-linejoin="round" stroke="rgb(80%, 80%, 80%)" stroke-opacity="1" stroke-miterlimit="10" d="M 52.871094 123.351562 L 546.113281 123.351562 "/>
</g>
<g clip-path="url(#clip-13)">
<path fill="none" stroke-width="0.426791" stroke-linecap="butt" stroke-linejoin="round" stroke="rgb(80%, 80%, 80%)" stroke-opacity="1" stroke-miterlimit="10" d="M 52.871094 65.660156 L 546.113281 65.660156 "/>
</g>
<g clip-path="url(#clip-14)">
<path fill="none" stroke-width="0.426791" stroke-linecap="butt" stroke-linejoin="round" stroke="rgb(80%, 80%, 80%)" stroke-opacity="1" stroke-miterlimit="10" d="M 75.292969 309.128906 L 75.292969 29.886719 "/>
</g>
<g clip-path="url(#clip-15)">
<path fill="none" stroke-width="0.426791" stroke-linecap="butt" stroke-linejoin="round" stroke="rgb(80%, 80%, 80%)" stroke-opacity="1" stroke-miterlimit="10" d="M 187.394531 309.128906 L 187.394531 29.886719 "/>
</g>
<g clip-path="url(#clip-16)">
<path fill="none" stroke-width="0.426791" stroke-linecap="butt" stroke-linejoin="round" stroke="rgb(80%, 80%, 80%)" stroke-opacity="1" stroke-miterlimit="10" d="M 299.492188 309.128906 L 299.492188 29.886719 "/>
</g>
<g clip-path="url(#clip-17)">
<path fill="none" stroke-width="0.426791" stroke-linecap="butt" stroke-linejoin="round" stroke="rgb(80%, 80%, 80%)" stroke-opacity="1" stroke-miterlimit="10" d="M 411.59375 309.128906 L 411.59375 29.886719 "/>
</g>
<g clip-path="url(#clip-18)">
<path fill="none" stroke-width="0.426791" stroke-linecap="butt" stroke-linejoin="round" stroke="rgb(80%, 80%, 80%)" stroke-opacity="1" stroke-miterlimit="10" d="M 523.691406 309.128906 L 523.691406 29.886719 "/>
</g>
<path fill="none" stroke-width="1.066978" stroke-linecap="butt" stroke-linejoin="round" stroke="rgb(29.803922%, 33.72549%, 41.568627%)" stroke-opacity="1" stroke-miterlimit="10" d="M 75.292969 181.046875 L 79.777344 183.355469 L 84.261719 185.660156 L 97.714844 192.585938 L 102.195312 194.894531 L 106.679688 197.199219 L 124.617188 206.433594 L 129.101562 208.738281 L 142.554688 215.664062 L 147.035156 217.96875 L 164.972656 227.203125 L 169.457031 229.507812 L 187.394531 238.742188 L 191.875 241.046875 L 205.328125 247.972656 L 209.8125 250.277344 L 227.75 259.511719 L 232.234375 261.816406 L 236.714844 264.125 L 250.167969 271.050781 L 254.652344 273.355469 L 268.105469 280.28125 L 272.589844 282.585938 L 277.074219 284.894531 L 281.554688 287.203125 L 290.523438 291.820312 L 295.007812 294.125 L 299.492188 296.433594 "/>
<g clip-path="url(#clip-19)">
<path fill="none" stroke-width="1.066978" stroke-linecap="butt" stroke-linejoin="round" stroke="rgb(0%, 0%, 0%)" stroke-opacity="1" stroke-miterlimit="10" d="M 75.292969 309.128906 L 75.292969 29.886719 "/>
</g>
<g clip-path="url(#clip-20)">
<path fill="none" stroke-width="1.066978" stroke-linecap="butt" stroke-linejoin="round" stroke="rgb(0%, 0%, 0%)" stroke-opacity="1" stroke-miterlimit="10" d="M 52.871094 296.433594 L 546.113281 296.433594 "/>
</g>
<g clip-path="url(#clip-21)">
<g fill="rgb(0%, 0%, 0%)" fill-opacity="1">
<use xlink:href="#glyph-0-1" x="50.792969" y="184.546875"/>
<use xlink:href="#glyph-0-2" x="58.792969" y="184.546875"/>
<use xlink:href="#glyph-0-3" x="64.792969" y="184.546875"/>
<use xlink:href="#glyph-0-4" x="70.792969" y="184.546875"/>
<use xlink:href="#glyph-0-5" x="76.792969" y="184.546875"/>
<use xlink:href="#glyph-0-6" x="79.792969" y="184.546875"/>
<use xlink:href="#glyph-0-7" x="83.792969" y="184.546875"/>
<use xlink:href="#glyph-0-8" x="89.792969" y="184.546875"/>
<use xlink:href="#glyph-0-9" x="92.792969" y="184.546875"/>
</g>
<g fill="rgb(0%, 0%, 0%)" fill-opacity="1">
<use xlink:href="#glyph-0-1" x="50.792969" y="184.546875"/>
<use xlink:href="#glyph-0-2" x="58.792969" y="184.546875"/>
<use xlink:href="#glyph-0-3" x="64.792969" y="184.546875"/>
<use xlink:href="#glyph-0-4" x="70.792969" y="184.546875"/>
<use xlink:href="#glyph-0-5" x="76.792969" y="184.546875"/>
<use xlink:href="#glyph-0-6" x="79.792969" y="184.546875"/>
<use xlink:href="#glyph-0-7" x="83.792969" y="184.546875"/>
<use xlink:href="#glyph-0-8" x="89.792969" y="184.546875"/>
<use xlink:href="#glyph-0-9" x="92.792969" y="184.546875"/>
</g>
</g>
<g fill="rgb(30.196078%, 30.196078%, 30.196078%)" fill-opacity="1">
<use xlink:href="#glyph-1-1" x="45.878906" y="298.859375"/>
</g>
<g fill="rgb(30.196078%, 30.196078%, 30.196078%)" fill-opacity="1">
<use xlink:href="#glyph-1-2" x="45.878906" y="241.167969"/>
</g>
<g fill="rgb(30.196078%, 30.196078%, 30.196078%)" fill-opacity="1">
<use xlink:href="#glyph-1-3" x="40.878906" y="183.472656"/>
<use xlink:href="#glyph-1-1" x="45.878906" y="183.472656"/>
</g>
<g fill="rgb(30.196078%, 30.196078%, 30.196078%)" fill-opacity="1">
<use xlink:href="#glyph-1-3" x="40.878906" y="125.777344"/>
<use xlink:href="#glyph-1-2" x="45.878906" y="125.777344"/>
</g>
<g fill="rgb(30.196078%, 30.196078%, 30.196078%)" fill-opacity="1">
<use xlink:href="#glyph-1-4" x="40.878906" y="68.085938"/>
<use xlink:href="#glyph-1-1" x="45.878906" y="68.085938"/>
</g>
<g fill="rgb(30.196078%, 30.196078%, 30.196078%)" fill-opacity="1">
<use xlink:href="#glyph-1-1" x="68.792969" y="316.546875"/>
<use xlink:href="#glyph-1-5" x="73.792969" y="316.546875"/>
<use xlink:href="#glyph-1-1" x="76.792969" y="316.546875"/>
</g>
<g fill="rgb(30.196078%, 30.196078%, 30.196078%)" fill-opacity="1">
<use xlink:href="#glyph-1-4" x="180.894531" y="316.546875"/>
<use xlink:href="#glyph-1-5" x="185.894531" y="316.546875"/>
<use xlink:href="#glyph-1-2" x="188.894531" y="316.546875"/>
</g>
<g fill="rgb(30.196078%, 30.196078%, 30.196078%)" fill-opacity="1">
<use xlink:href="#glyph-1-2" x="292.992188" y="316.546875"/>
<use xlink:href="#glyph-1-5" x="297.992188" y="316.546875"/>
<use xlink:href="#glyph-1-1" x="300.992188" y="316.546875"/>
</g>
<g fill="rgb(30.196078%, 30.196078%, 30.196078%)" fill-opacity="1">
<use xlink:href="#glyph-1-6" x="405.09375" y="316.546875"/>
<use xlink:href="#glyph-1-5" x="410.09375" y="316.546875"/>
<use xlink:href="#glyph-1-2" x="413.09375" y="316.546875"/>
</g>
<g fill="rgb(30.196078%, 30.196078%, 30.196078%)" fill-opacity="1">
<use xlink:href="#glyph-1-3" x="514.691406" y="316.546875"/>
<use xlink:href="#glyph-1-1" x="519.691406" y="316.546875"/>
<use xlink:href="#glyph-1-5" x="524.691406" y="316.546875"/>
<use xlink:href="#glyph-1-1" x="527.691406" y="316.546875"/>
</g>
<g fill="rgb(0%, 0%, 0%)" fill-opacity="1">
<use xlink:href="#glyph-2-1" x="533.113281" y="327.467773"/>
<use xlink:href="#glyph-2-2" x="540.113281" y="327.467773"/>
<use xlink:href="#glyph-2-3" x="543.113281" y="327.467773"/>
</g>
<g fill="rgb(0%, 0%, 0%)" fill-opacity="1">
<use xlink:href="#glyph-3-1" x="36.241211" y="53.886719"/>
<use xlink:href="#glyph-3-2" x="36.241211" y="46.886719"/>
<use xlink:href="#glyph-3-3" x="36.241211" y="40.886719"/>
<use xlink:href="#glyph-3-4" x="36.241211" y="34.886719"/>
</g>
</svg>
